<?xml version="1.0" encoding="UTF-8" standalone="no"?>
<!DOCTYPE svg PUBLIC "-//W3C//DTD SVG 20010904//EN"
              "http://www.w3.org/TR/2001/REC-SVG-20010904/DTD/svg10.dtd">

<svg xmlns="http://www.w3.org/2000/svg"
     width="26.6667in" height="15in"
     viewBox="0 0 1920 1080">
  <path id="Selection"
        fill="none" stroke="black" stroke-width="1"
        d="M 1441.50,698.00
           C 1445.60,709.73 1444.50,720.75 1437.07,731.00
             1431.67,738.46 1425.78,741.86 1421.95,751.00
             1417.89,760.69 1419.20,769.13 1421.00,779.00
             1415.61,780.19 1414.56,777.46 1411.95,773.00
             1406.93,764.46 1405.89,758.83 1406.00,749.00
             1406.23,728.97 1421.57,720.92 1429.95,705.00
             1435.26,694.93 1430.86,693.86 1433.00,686.00
             1438.29,688.75 1439.60,692.60 1441.50,698.00 Z
           M 1336.34,769.00
           C 1334.09,763.47 1333.71,758.84 1334.58,753.00
             1336.76,738.28 1345.27,734.41 1352.07,723.00
             1358.11,712.88 1352.39,710.77 1359.00,707.00
             1365.42,717.00 1367.40,729.47 1360.79,739.99
             1356.62,746.63 1352.09,748.90 1349.03,755.01
             1343.30,766.48 1345.49,768.79 1346.00,780.00
             1339.76,778.94 1338.57,774.47 1336.34,769.00 Z
           M 1460.00,791.00
           C 1460.00,791.00 1518.00,791.00 1518.00,791.00
             1526.64,791.02 1526.98,791.36 1527.00,800.00
             1527.00,800.00 1527.00,827.00 1527.00,827.00
             1527.00,827.00 1525.74,846.00 1525.74,846.00
             1525.74,846.00 1524.12,853.00 1524.12,853.00
             1519.53,890.21 1508.65,929.91 1483.72,959.00
             1476.63,967.27 1459.15,984.07 1449.00,987.20
             1446.07,988.10 1443.03,988.00 1440.00,988.00
             1440.00,988.00 1323.00,988.00 1323.00,988.00
             1312.00,987.98 1307.62,984.33 1299.09,977.74
             1288.32,969.43 1278.04,958.57 1270.73,947.09
             1252.57,918.55 1246.80,896.70 1240.83,864.00
             1240.83,864.00 1239.21,857.00 1239.21,857.00
             1239.21,857.00 1237.91,840.00 1237.91,840.00
             1237.91,840.00 1237.00,828.00 1237.00,828.00
             1237.00,828.00 1237.00,791.00 1237.00,791.00
             1237.00,791.00 1460.00,791.00 1460.00,791.00 Z
           M 75.00,796.00
           C 75.00,796.00 75.00,925.00 75.00,925.00
             75.00,925.00 142.00,925.00 142.00,925.00
             142.00,925.00 142.00,982.00 142.00,982.00
             142.00,982.00 37.00,982.00 37.00,982.00
             20.78,981.97 16.02,974.40 16.00,959.00
             16.00,959.00 16.00,796.00 16.00,796.00
             16.00,796.00 75.00,796.00 75.00,796.00 Z
           M 162.28,938.00
           C 162.28,938.00 193.72,838.00 193.72,838.00
             193.72,838.00 202.00,812.00 202.00,812.00
             203.25,808.25 204.54,803.06 207.27,800.22
             210.82,796.54 215.20,796.06 220.00,796.00
             220.00,796.00 251.00,796.00 251.00,796.00
             255.66,796.01 259.94,795.88 263.96,798.70
             268.82,802.11 270.22,807.68 272.00,813.00
             272.00,813.00 280.33,838.00 280.33,838.00
             280.33,838.00 314.33,938.00 314.33,938.00
             314.33,938.00 329.00,982.00 329.00,982.00
             329.00,982.00 149.00,982.00 149.00,982.00
             149.00,982.00 162.28,938.00 162.28,938.00 Z
           M 346.00,841.00
           C 346.00,841.00 346.00,824.00 346.00,824.00
             346.00,812.34 345.12,800.98 359.00,797.16
             363.34,795.96 365.60,796.01 370.00,796.00
             370.00,796.00 439.00,796.00 439.00,796.00
             451.49,796.02 465.93,798.68 476.00,806.53
             488.58,816.34 491.82,834.94 492.00,850.00
             492.24,871.00 489.03,894.26 470.00,906.90
             453.76,917.69 424.25,915.00 405.00,915.00
             405.00,915.00 405.00,982.00 405.00,982.00
             405.00,982.00 346.00,982.00 346.00,982.00
             346.00,982.00 346.00,841.00 346.00,841.00 Z
           M 591.00,925.00
           C 596.10,924.99 603.35,924.44 601.67,917.06
             600.61,912.42 595.69,913.01 592.00,913.00
             572.60,912.96 544.02,916.07 528.00,904.24
             517.37,896.39 513.02,883.79 513.00,871.00
             512.96,847.98 509.37,821.42 530.00,805.53
             538.57,798.92 552.33,796.13 563.00,796.00
             563.00,796.00 651.00,796.00 651.00,796.00
             651.00,796.00 651.00,853.00 651.00,853.00
             651.00,853.00 589.00,853.00 589.00,853.00
             583.54,853.00 570.21,850.77 569.15,858.04
             567.96,866.23 574.04,865.99 580.00,866.00
             598.25,866.03 627.06,862.97 642.00,873.79
             654.37,882.75 657.83,899.59 658.00,914.00
             658.24,935.06 658.72,959.58 639.99,973.51
             627.02,983.15 611.17,982.00 596.00,982.00
             596.00,982.00 516.00,982.00 516.00,982.00
             516.00,982.00 516.00,925.00 516.00,925.00
             516.00,925.00 591.00,925.00 591.00,925.00 Z
           M 678.28,938.00
           C 678.28,938.00 709.72,838.00 709.72,838.00
             709.72,838.00 718.00,812.00 718.00,812.00
             719.25,808.25 720.54,803.06 723.27,800.22
             726.82,796.54 731.20,796.06 736.00,796.00
             736.00,796.00 767.00,796.00 767.00,796.00
             771.66,796.01 775.94,795.88 779.96,798.70
             784.82,802.11 786.22,807.68 788.00,813.00
             788.00,813.00 796.33,838.00 796.33,838.00
             796.33,838.00 830.33,938.00 830.33,938.00
             830.33,938.00 845.00,982.00 845.00,982.00
             845.00,982.00 665.00,982.00 665.00,982.00
             665.00,982.00 678.28,938.00 678.28,938.00 Z
           M 862.00,840.00
           C 862.00,840.00 862.00,813.00 862.00,813.00
             862.04,806.18 863.22,800.85 870.00,797.57
             873.52,795.87 877.21,796.01 881.00,796.00
             891.52,795.98 910.11,794.42 919.00,799.53
             926.91,804.08 932.40,817.66 936.00,826.00
             936.00,826.00 949.22,854.00 949.22,854.00
             949.22,854.00 960.00,877.00 960.00,877.00
             960.00,877.00 959.00,861.00 959.00,861.00
             959.00,861.00 957.00,816.00 957.00,816.00
             957.00,816.00 956.00,796.00 956.00,796.00
             956.00,796.00 1013.00,796.00 1013.00,796.00
             1013.00,796.00 1013.00,939.00 1013.00,939.00
             1013.00,939.00 1013.00,966.00 1013.00,966.00
             1012.92,971.73 1011.46,977.63 1005.96,980.55
             1002.86,982.19 999.39,981.99 996.00,982.00
             988.86,982.01 971.87,982.92 966.00,980.52
             953.73,975.51 945.97,954.35 939.58,943.00
             939.58,943.00 915.00,897.00 915.00,897.00
             915.00,897.00 916.00,916.00 916.00,916.00
             916.00,916.00 918.00,964.00 918.00,964.00
             918.00,964.00 919.00,982.00 919.00,982.00
             919.00,982.00 862.00,982.00 862.00,982.00
             862.00,982.00 862.00,840.00 862.00,840.00 Z
           M 1184.00,959.00
           C 1183.98,974.40 1179.22,981.97 1163.00,982.00
             1163.00,982.00 1131.00,982.00 1131.00,982.00
             1131.00,982.00 1115.00,982.00 1115.00,982.00
             1093.02,981.97 1070.37,973.62 1056.52,956.00
             1047.94,945.09 1042.17,925.85 1042.00,912.00
             1042.00,912.00 1042.00,885.00 1042.00,885.00
             1042.00,885.00 1042.00,869.00 1042.00,869.00
             1042.04,845.69 1052.17,820.00 1073.00,807.88
             1079.45,804.12 1085.78,801.48 1093.00,799.63
             1100.95,797.60 1112.81,796.01 1121.00,796.00
             1121.00,796.00 1179.00,796.00 1179.00,796.00
             1179.00,796.00 1179.00,853.00 1179.00,853.00
             1179.00,853.00 1126.00,853.00 1126.00,853.00
             1119.29,853.08 1110.15,854.28 1105.21,859.21
             1101.57,862.85 1100.57,867.13 1099.67,872.00
             1098.63,878.73 1098.53,900.28 1099.67,907.00
             1100.40,912.11 1101.28,916.90 1105.21,920.66
             1111.05,926.24 1119.53,926.00 1127.00,926.00
             1127.00,926.00 1127.00,882.00 1127.00,882.00
             1127.00,882.00 1184.00,882.00 1184.00,882.00
             1184.00,882.00 1184.00,959.00 1184.00,959.00 Z
           M 1517.58,927.00
           C 1518.80,923.94 1522.68,913.34 1524.51,911.51
             1524.51,911.51 1542.00,902.07 1542.00,902.07
             1544.80,900.10 1552.27,894.11 1554.54,891.71
             1563.21,882.55 1572.76,864.95 1571.82,852.00
             1570.97,840.36 1565.18,833.31 1553.00,833.01
             1550.05,832.94 1541.65,834.38 1540.01,832.39
             1538.74,830.81 1539.95,817.13 1540.01,814.00
             1540.13,806.26 1542.97,806.91 1551.00,807.00
             1571.25,807.23 1591.28,815.13 1598.02,836.00
             1600.48,843.61 1600.01,851.14 1600.00,859.00
             1599.98,870.84 1596.17,878.92 1590.27,889.00
             1578.15,909.70 1553.61,928.98 1532.03,939.04
             1524.52,942.54 1515.21,948.26 1507.00,949.00
             1507.00,949.00 1517.58,927.00 1517.58,927.00 Z
           M 428.00,864.00
           C 429.82,863.99 432.93,864.15 434.40,862.98
             437.40,860.61 436.15,853.43 432.77,851.87
             429.63,850.42 409.83,851.00 405.00,851.00
             405.00,851.00 405.00,864.00 405.00,864.00
             405.00,864.00 428.00,864.00 428.00,864.00 Z
           M 233.13,888.00
           C 233.13,888.00 225.00,925.00 225.00,925.00
             225.00,925.00 249.00,925.00 249.00,925.00
             249.00,925.00 238.00,873.00 238.00,873.00
             234.78,877.02 234.36,883.05 233.13,888.00 Z
           M 749.13,888.00
           C 749.13,888.00 741.00,925.00 741.00,925.00
             741.00,925.00 765.00,925.00 765.00,925.00
             765.00,925.00 754.00,873.00 754.00,873.00
             750.78,877.02 750.36,883.05 749.13,888.00 Z
           M 221.00,938.00
           C 221.00,938.00 222.00,939.00 222.00,939.00
             222.00,939.00 222.00,938.00 222.00,938.00
             222.00,938.00 221.00,938.00 221.00,938.00 Z
           M 737.00,938.00
           C 737.00,938.00 738.00,939.00 738.00,939.00
             738.00,939.00 738.00,938.00 738.00,938.00
             738.00,938.00 737.00,938.00 737.00,938.00 Z
           M 220.00,942.00
           C 220.00,942.00 221.00,943.00 221.00,943.00
             221.00,943.00 221.00,942.00 221.00,942.00
             221.00,942.00 220.00,942.00 220.00,942.00 Z
           M 736.00,942.00
           C 736.00,942.00 737.00,943.00 737.00,943.00
             737.00,943.00 737.00,942.00 737.00,942.00
             737.00,942.00 736.00,942.00 736.00,942.00 Z" />
</svg>
